<svg id="visual" viewBox="0 0 900 600" width="900" height="600" xmlns="http://www.w3.org/2000/svg" xmlns:xlink="http://www.w3.org/1999/xlink" version="1.1"><rect x="0" y="0" width="900" height="600" fill="#d8e0e6"></rect><path d="M0 350L21.5 352.2C43 354.3 86 358.7 128.8 370.3C171.7 382 214.3 401 257.2 409.7C300 418.3 343 416.7 385.8 410.7C428.7 404.7 471.3 394.3 514.2 389.2C557 384 600 384 642.8 380.7C685.7 377.3 728.3 370.7 771.2 379.2C814 387.7 857 411.3 878.5 423.2L900 435L900 601L878.5 601C857 601 814 601 771.2 601C728.3 601 685.7 601 642.8 601C600 601 557 601 514.2 601C471.3 601 428.7 601 385.8 601C343 601 300 601 257.2 601C214.3 601 171.7 601 128.8 601C86 601 43 601 21.5 601L0 601Z" fill="#0a2b5c"></path><path d="M0 416L21.5 414.5C43 413 86 410 128.8 419.8C171.7 429.7 214.3 452.3 257.2 453.2C300 454 343 433 385.8 429.5C428.7 426 471.3 440 514.2 437.5C557 435 600 416 642.8 416C685.7 416 728.3 435 771.2 442C814 449 857 444 878.5 441.5L900 439L900 601L878.5 601C857 601 814 601 771.2 601C728.3 601 685.7 601 642.8 601C600 601 557 601 514.2 601C471.3 601 428.7 601 385.8 601C343 601 300 601 257.2 601C214.3 601 171.7 601 128.8 601C86 601 43 601 21.5 601L0 601Z" fill="#023a83"></path><path d="M0 458L21.5 460.7C43 463.3 86 468.7 128.8 467.8C171.7 467 214.3 460 257.2 463.8C300 467.7 343 482.3 385.8 480.2C428.7 478 471.3 459 514.2 457.3C557 455.7 600 471.3 642.8 478.3C685.7 485.3 728.3 483.7 771.2 483.8C814 484 857 486 878.5 487L900 488L900 601L878.5 601C857 601 814 601 771.2 601C728.3 601 685.7 601 642.8 601C600 601 557 601 514.2 601C471.3 601 428.7 601 385.8 601C343 601 300 601 257.2 601C214.3 601 171.7 601 128.8 601C86 601 43 601 21.5 601L0 601Z" fill="#0049ab"></path><path d="M0 536L21.5 533.8C43 531.7 86 527.3 128.8 524.7C171.7 522 214.3 521 257.2 519.3C300 517.7 343 515.3 385.8 518.7C428.7 522 471.3 531 514.2 535C557 539 600 538 642.8 529.2C685.7 520.3 728.3 503.7 771.2 498.2C814 492.7 857 498.3 878.5 501.2L900 504L900 601L878.5 601C857 601 814 601 771.2 601C728.3 601 685.7 601 642.8 601C600 601 557 601 514.2 601C471.3 601 428.7 601 385.8 601C343 601 300 601 257.2 601C214.3 601 171.7 601 128.8 601C86 601 43 601 21.5 601L0 601Z" fill="#0058d4"></path><path d="M0 567L21.5 567.2C43 567.3 86 567.7 128.8 565.3C171.7 563 214.3 558 257.2 558.5C300 559 343 565 385.8 563.8C428.7 562.7 471.3 554.3 514.2 554.2C557 554 600 562 642.8 562.8C685.7 563.7 728.3 557.3 771.2 553.8C814 550.3 857 549.7 878.5 549.3L900 549L900 601L878.5 601C857 601 814 601 771.2 601C728.3 601 685.7 601 642.8 601C600 601 557 601 514.2 601C471.3 601 428.7 601 385.8 601C343 601 300 601 257.2 601C214.3 601 171.7 601 128.8 601C86 601 43 601 21.5 601L0 601Z" fill="#0066ff"></path></svg>