<svg id="visual" viewBox="0 0 900 600" width="900" height="600" xmlns="http://www.w3.org/2000/svg" xmlns:xlink="http://www.w3.org/1999/xlink" version="1.1"><g stroke-width="1" stroke-linejoin="bevel"><path d="M495 322L500 421L571 410Z" fill="#13bb22" stroke="#13bb22"></path><path d="M500 421L529 470L571 410Z" fill="#00605e" stroke="#00605e"></path><path d="M571 410L602 296L495 322Z" fill="#010508" stroke="#010508"></path><path d="M495 322L390 390L500 421Z" fill="#00aa46" stroke="#00aa46"></path><path d="M500 421L437 493L529 470Z" fill="#007365" stroke="#007365"></path><path d="M390 390L437 493L500 421Z" fill="#13bb22" stroke="#13bb22"></path><path d="M481 182L396 280L495 322Z" fill="#0a3b42" stroke="#0a3b42"></path><path d="M495 322L396 280L390 390Z" fill="#00aa46" stroke="#00aa46"></path><path d="M509 600L593 528L529 470Z" fill="#00aa46" stroke="#00aa46"></path><path d="M529 470L593 528L571 410Z" fill="#0e1a1f" stroke="#0e1a1f"></path><path d="M571 410L692 298L602 296Z" fill="#007365" stroke="#007365"></path><path d="M712 432L692 298L571 410Z" fill="#00605e" stroke="#00605e"></path><path d="M602 296L481 182L495 322Z" fill="#008664" stroke="#008664"></path><path d="M593 528L712 432L571 410Z" fill="#008664" stroke="#008664"></path><path d="M582 164L481 182L602 296Z" fill="#010508" stroke="#010508"></path><path d="M309 317L332 419L390 390Z" fill="#0e2a31" stroke="#0e2a31"></path><path d="M390 390L332 419L437 493Z" fill="#00605e" stroke="#00605e"></path><path d="M668 176L582 164L602 296Z" fill="#008664" stroke="#008664"></path><path d="M269 166L309 317L396 280Z" fill="#0e2a31" stroke="#0e2a31"></path><path d="M396 280L309 317L390 390Z" fill="#0a3b42" stroke="#0a3b42"></path><path d="M461 119L409 176L481 182Z" fill="#0e2a31" stroke="#0e2a31"></path><path d="M481 182L409 176L396 280Z" fill="#0a3b42" stroke="#0a3b42"></path><path d="M437 493L509 600L529 470Z" fill="#010508" stroke="#010508"></path><path d="M593 528L717 514L712 432Z" fill="#00995a" stroke="#00995a"></path><path d="M366 600L509 600L437 493Z" fill="#00995a" stroke="#00995a"></path><path d="M509 600L569 600L593 528Z" fill="#00995a" stroke="#00995a"></path><path d="M718 600L717 514L593 528Z" fill="#007365" stroke="#007365"></path><path d="M692 298L668 176L602 296Z" fill="#00aa46" stroke="#00aa46"></path><path d="M582 164L461 119L481 182Z" fill="#00995a" stroke="#00995a"></path><path d="M435 77L461 119L492 0Z" fill="#13bb22" stroke="#13bb22"></path><path d="M717 514L760 489L712 432Z" fill="#010508" stroke="#010508"></path><path d="M796 396L780 294L692 298Z" fill="#034d51" stroke="#034d51"></path><path d="M692 298L780 294L668 176Z" fill="#034d51" stroke="#034d51"></path><path d="M796 396L692 298L712 432Z" fill="#00605e" stroke="#00605e"></path><path d="M760 489L796 396L712 432Z" fill="#0a3b42" stroke="#0a3b42"></path><path d="M266 525L437 493L332 419Z" fill="#034d51" stroke="#034d51"></path><path d="M266 525L366 600L437 493Z" fill="#008664" stroke="#008664"></path><path d="M717 514L774 600L760 489Z" fill="#008664" stroke="#008664"></path><path d="M900 510L900 372L796 396Z" fill="#034d51" stroke="#034d51"></path><path d="M569 600L718 600L593 528Z" fill="#00aa46" stroke="#00aa46"></path><path d="M207 538L266 525L166 385Z" fill="#00995a" stroke="#00995a"></path><path d="M622 72L461 119L582 164Z" fill="#0e2a31" stroke="#0e2a31"></path><path d="M461 119L435 77L409 176Z" fill="#034d51" stroke="#034d51"></path><path d="M269 166L215 280L309 317Z" fill="#0e1a1f" stroke="#0e1a1f"></path><path d="M703 81L622 72L668 176Z" fill="#00605e" stroke="#00605e"></path><path d="M668 176L622 72L582 164Z" fill="#0e2a31" stroke="#0e2a31"></path><path d="M269 166L396 280L409 176Z" fill="#007365" stroke="#007365"></path><path d="M309 317L166 385L332 419Z" fill="#13bb22" stroke="#13bb22"></path><path d="M273 77L269 166L409 176Z" fill="#0e1a1f" stroke="#0e1a1f"></path><path d="M718 600L774 600L717 514Z" fill="#034d51" stroke="#034d51"></path><path d="M810 124L703 81L668 176Z" fill="#010508" stroke="#010508"></path><path d="M266 525L276 600L366 600Z" fill="#0a3b42" stroke="#0a3b42"></path><path d="M226 600L276 600L266 525Z" fill="#13bb22" stroke="#13bb22"></path><path d="M900 223L818 172L780 294Z" fill="#034d51" stroke="#034d51"></path><path d="M780 294L818 172L668 176Z" fill="#010508" stroke="#010508"></path><path d="M166 385L266 525L332 419Z" fill="#13bb22" stroke="#13bb22"></path><path d="M215 280L166 385L309 317Z" fill="#0e1a1f" stroke="#0e1a1f"></path><path d="M900 510L796 396L760 489Z" fill="#00605e" stroke="#00605e"></path><path d="M796 396L900 372L780 294Z" fill="#034d51" stroke="#034d51"></path><path d="M623 0L492 0L622 72Z" fill="#008664" stroke="#008664"></path><path d="M622 72L492 0L461 119Z" fill="#0e1a1f" stroke="#0e1a1f"></path><path d="M435 77L273 77L409 176Z" fill="#0a3b42" stroke="#0a3b42"></path><path d="M818 172L810 124L668 176Z" fill="#00aa46" stroke="#00aa46"></path><path d="M900 88L810 124L818 172Z" fill="#007365" stroke="#007365"></path><path d="M900 372L900 298L780 294Z" fill="#00aa46" stroke="#00aa46"></path><path d="M207 538L226 600L266 525Z" fill="#00605e" stroke="#00605e"></path><path d="M671 0L623 0L622 72Z" fill="#007365" stroke="#007365"></path><path d="M671 0L622 72L703 81Z" fill="#007365" stroke="#007365"></path><path d="M368 0L273 77L435 77Z" fill="#13bb22" stroke="#13bb22"></path><path d="M269 166L190 175L215 280Z" fill="#0e2a31" stroke="#0e2a31"></path><path d="M73 309L107 411L166 385Z" fill="#034d51" stroke="#034d51"></path><path d="M210 102L190 175L269 166Z" fill="#00995a" stroke="#00995a"></path><path d="M811 0L671 0L703 81Z" fill="#00aa46" stroke="#00aa46"></path><path d="M774 600L900 510L760 489Z" fill="#034d51" stroke="#034d51"></path><path d="M900 298L900 223L780 294Z" fill="#034d51" stroke="#034d51"></path><path d="M492 0L368 0L435 77Z" fill="#034d51" stroke="#034d51"></path><path d="M224 0L210 102L273 77Z" fill="#13bb22" stroke="#13bb22"></path><path d="M273 77L210 102L269 166Z" fill="#008664" stroke="#008664"></path><path d="M166 385L138 534L207 538Z" fill="#034d51" stroke="#034d51"></path><path d="M207 538L138 534L226 600Z" fill="#0e1a1f" stroke="#0e1a1f"></path><path d="M73 309L166 385L215 280Z" fill="#13bb22" stroke="#13bb22"></path><path d="M115 183L215 280L190 175Z" fill="#00aa46" stroke="#00aa46"></path><path d="M107 411L138 534L166 385Z" fill="#010508" stroke="#010508"></path><path d="M368 0L306 0L273 77Z" fill="#00995a" stroke="#00995a"></path><path d="M774 600L900 600L900 510Z" fill="#007365" stroke="#007365"></path><path d="M78 111L115 183L210 102Z" fill="#007365" stroke="#007365"></path><path d="M210 102L115 183L190 175Z" fill="#13bb22" stroke="#13bb22"></path><path d="M115 183L73 309L215 280Z" fill="#13bb22" stroke="#13bb22"></path><path d="M0 531L104 600L138 534Z" fill="#0e1a1f" stroke="#0e1a1f"></path><path d="M900 88L811 0L810 124Z" fill="#00605e" stroke="#00605e"></path><path d="M810 124L811 0L703 81Z" fill="#13bb22" stroke="#13bb22"></path><path d="M900 223L900 88L818 172Z" fill="#00995a" stroke="#00995a"></path><path d="M306 0L224 0L273 77Z" fill="#00605e" stroke="#00605e"></path><path d="M0 531L138 534L107 411Z" fill="#13bb22" stroke="#13bb22"></path><path d="M138 534L104 600L226 600Z" fill="#034d51" stroke="#034d51"></path><path d="M0 228L0 312L73 309Z" fill="#00995a" stroke="#00995a"></path><path d="M80 0L78 111L210 102Z" fill="#0e1a1f" stroke="#0e1a1f"></path><path d="M900 88L900 0L811 0Z" fill="#007365" stroke="#007365"></path><path d="M73 309L0 425L107 411Z" fill="#00605e" stroke="#00605e"></path><path d="M0 312L0 425L73 309Z" fill="#0a3b42" stroke="#0a3b42"></path><path d="M0 228L73 309L115 183Z" fill="#034d51" stroke="#034d51"></path><path d="M78 111L0 228L115 183Z" fill="#13bb22" stroke="#13bb22"></path><path d="M0 425L0 531L107 411Z" fill="#008664" stroke="#008664"></path><path d="M0 531L0 600L104 600Z" fill="#0a3b42" stroke="#0a3b42"></path><path d="M224 0L80 0L210 102Z" fill="#00995a" stroke="#00995a"></path><path d="M78 111L0 68L0 228Z" fill="#007365" stroke="#007365"></path><path d="M80 0L0 68L78 111Z" fill="#007365" stroke="#007365"></path><path d="M80 0L0 0L0 68Z" fill="#010508" stroke="#010508"></path></g></svg>